/vscmnt/brussel_pixiu_data/_data_brussel/112/vsc11236/PredSimResults/SUBJ10mtu3D/worker2.mot
version=1
nRows=4
nColumns=50
inDegrees=yes
endheader
                time	         pelvis_tilt	         pelvis_list	     pelvis_rotation	           pelvis_tx	           pelvis_ty	           pelvis_tz	       hip_flexion_r	     hip_adduction_r	      hip_rotation_r	        knee_angle_r	       ankle_angle_r	         mtp_angle_r	       hip_flexion_l	     hip_adduction_l	      hip_rotation_l	        knee_angle_l	       ankle_angle_l	         mtp_angle_l	    lumbar_extension	      lumbar_bending	     lumbar_rotation	 ercspn_r/activation	 intobl_r/activation	 extobl_r/activation	    abd_r/activation	    add_r/activation	hamstrings_r/activation	bifemsh_r/activation	glut_max_r/activation	iliopsoas_r/activation	rect_fem_r/activation	  vasti_r/activation	gastroc_r/activation	 soleus_r/activation	tib_ant_r/activation	 ercspn_l/activation	 intobl_l/activation	 extobl_l/activation	    abd_l/activation	    add_l/activation	hamstrings_l/activation	bifemsh_l/activation	glut_max_l/activation	iliopsoas_l/activation	rect_fem_l/activation	  vasti_l/activation	gastroc_l/activation	 soleus_l/activation	tib_ant_l/activation	
          0.00000000	         -6.62246778	         -0.70391896	          5.16597503	          0.00000000	          0.82270609	         -0.00871897	         33.03218153	         -1.10298314	         -4.56481443	         -7.52242448	          4.04651949	          0.26053101	        -13.60296474	          0.33917720	          3.78117645	         -6.07523065	          6.70662535	         27.62026605	         -5.03885078	         -1.09166581	         -3.08000249	          0.12297901	          0.13598109	          0.01000001	          0.01179913	          0.13859619	          0.09763211	          0.27417555	          0.03005228	          0.05633356	          0.01000004	          0.01000000	          0.01000000	          0.00999999	          0.32242445	          0.06404840	          0.00999999	          0.01000000	          0.05811600	          0.01773423	          0.03416460	          0.18319561	          0.04254791	          0.33609377	          0.01000003	          0.01000000	          0.29679731	          0.20420261	          0.02153220	
          0.01079485	         -6.64836260	         -0.64201029	          5.18587148	          0.01535186	          0.82162764	         -0.00844738	         32.74941798	         -0.85395474	         -3.56653233	         -8.73193140	          3.74660498	          0.25553645	        -13.56207597	          0.39993029	          3.34976708	         -8.01226701	          6.02071351	         29.27579607	         -4.81936612	         -0.72255010	         -3.37759025	          0.10503636	          0.11962234	          0.01000001	          0.00999999	          0.18385718	          0.08338339	          0.23390839	          0.08178818	          0.04774378	          0.01000001	          0.00999999	          0.01686457	          0.01341884	          0.33953493	          0.09925038	          0.01000000	          0.01000000	          0.04925443	          0.08499194	          0.03799778	          0.15526181	          0.03606017	          0.32620998	          0.01000008	          0.01000003	          0.25154145	          0.19352651	          0.01824895	
          0.02158971	         -6.66545613	         -0.59723252	          5.17120376	          0.03096766	          0.82070876	         -0.00811424	         32.30522701	         -0.62524421	         -2.55591756	         -9.81926164	          3.37046128	          0.24899687	        -13.38102851	          0.44244256	          2.87344144	        -10.22823782	          5.23546516	         30.81542712	         -4.57870926	         -0.32603717	         -3.66060055	          0.09998571	          0.10739768	          0.01000000	          0.04528293	          0.15582254	          0.07444199	          0.19824188	          0.10863863	          0.04046377	          0.01000000	          0.00999999	          0.01429305	          0.01137273	          0.40495886	          0.10528310	          0.00999999	          0.01000000	          0.04174407	          0.07203235	          0.03873154	          0.13158737	          0.03056169	          0.30837682	          0.01000004	          0.01046786	          0.21318622	          0.17820683	          0.01546634	
          0.03238456	         -6.67524230	         -0.56035699	          5.11789865	          0.04664463	          0.82004862	         -0.00768621	         31.79235954	         -0.38896733	         -1.66198599	        -10.76845669	          2.88222260	          0.23739281	        -13.00193472	          0.47352857	          2.34865187	        -12.79031463	          4.34954309	         32.12872394	         -4.34139115	          0.08090999	         -3.92322658	          0.10952074	          0.09102161	          0.01000000	          0.08778432	          0.18241052	          0.06309970	          0.16801381	          0.13790586	          0.03429383	          0.01000000	          0.01000000	          0.01211364	          0.01000000	          0.43810167	          0.12883252	          0.00999999	          0.01000000	          0.03537891	          0.06104885	          0.03949627	          0.11152283	          0.02590162	          0.29281730	          0.01000003	          0.01139604	          0.18067942	          0.15730711	          0.01310802	
